<!DOCTYPE svg PUBLIC "-//W3C//DTD SVG 1.1//EN" "http://www.w3.org/Graphics/SVG/1.1/DTD/svg11.dtd">
<!-- Uploaded to: SVG Repo, www.svgrepo.com, Transformed by: SVG Repo Mixer Tools -->
<svg height="800px" width="800px" version="1.1" id="Layer_1" xmlns="http://www.w3.org/2000/svg" xmlns:xlink="http://www.w3.org/1999/xlink" viewBox="0 0 516 516" xml:space="preserve" fill="#000000">
<g id="SVGRepo_bgCarrier" stroke-width="0"/>
<g id="SVGRepo_tracerCarrier" stroke-linecap="round" stroke-linejoin="round"/>
<g id="SVGRepo_iconCarrier"> <path style="fill:#d9e25a;" d="M498,476c0,22-18,40-40,40H58c-22,0-40-18-40-40V92c0-22,18-40,40-40h400c22,0,40,18,40,40V476z"/> <g> <path style="fill:#537688;" d="M458,52h-24c22,0,40,18,40,40v384c0,22-18,40-40,40h24c22,0,40-18,40-40V92C498,70,480,52,458,52z"/> <path style="fill:#537688;" d="M90,476c-17.644,0-32-14.356-32-32V340c0-8.824,7.176-16,16-16s16,7.176,16,16v104h336V340 c0-8.824,7.176-16,16-16s16,7.176,16,16v104c0,17.644-14.356,32-32,32H90z"/> </g> <path style="fill:#F5F5F5;" d="M426,468H90c-13.236,0-24-10.764-24-24V340c0-4.416,3.584-8,8-8s8,3.584,8,8v104c0,4.416,3.588,8,8,8 h336c4.416,0,8-3.584,8-8V340c0-4.416,3.584-8,8-8s8,3.584,8,8v104C450,457.236,439.236,468,426,468z"/> <path style="fill:#537688;" d="M102,280c-8.824,0-16-7.176-16-16v-84c0-8.824,7.176-16,16-16h108c8.824,0,16,7.176,16,16v84 c0,8.824-7.176,16-16,16H102z"/> <path style="fill:#F5F5F5;" d="M218,264c0,4.416-3.584,8-8,8H102c-4.416,0-8-3.584-8-8v-84c0-4.416,3.584-8,8-8h108 c4.416,0,8,3.584,8,8V264z"/> <path style="fill:#537688;" d="M306,280c-8.824,0-16-7.176-16-16v-84c0-8.824,7.176-16,16-16h108c8.824,0,16,7.176,16,16v84 c0,8.824-7.176,16-16,16H306z"/> <path style="fill:#F5F5F5;" d="M422,264c0,4.416-3.584,8-8,8H306c-4.416,0-8-3.584-8-8v-84c0-4.416,3.584-8,8-8h108 c4.416,0,8,3.584,8,8V264z"/> <g> <circle style="fill:#808080;" cx="360" cy="222" r="12"/> <circle style="fill:#808080;" cx="156" cy="222" r="12"/> </g> <path style="fill:#E6E6E6;" d="M282,52h-16c0-14.816-15.66-28-28-28V8C258.348,8,282,27.22,282,52z"/> <circle style="fill:#E16B5A;" cx="226" cy="16" r="16"/> </g>
</svg>