<?xml version="1.0" encoding="iso-8859-1"?>
<!-- Uploaded to: SVG Repo, www.svgrepo.com, Generator: SVG Repo Mixer Tools -->
<svg fill="#000000" height="800px" width="800px" version="1.1" id="Layer_1" xmlns="http://www.w3.org/2000/svg" xmlns:xlink="http://www.w3.org/1999/xlink" 
	 viewBox="0 0 512.001 512.001" xml:space="preserve">
<g>
	<g>
		<g>
			<path d="M355.692,99.706c0,31.204,25.384,56.589,56.587,56.589s56.587-25.385,56.587-56.589s-25.385-56.589-56.587-56.589
				C381.078,43.116,355.692,68.502,355.692,99.706z M452.699,99.706c0,22.289-18.132,40.421-40.42,40.421
				c-22.288,0-40.42-18.132-40.42-40.421s18.133-40.421,40.421-40.421C434.567,59.285,452.699,77.417,452.699,99.706z"/>
			<path d="M309.881,167.074h43.115c7.43,0,13.474,6.044,13.474,13.474c0,4.465,3.62,8.084,8.084,8.084h64.672
				c7.43,0,13.474,6.044,13.474,13.474s-6.044,13.474-13.47,13.474h-97.007c-7.43,0-13.474-6.044-13.474-13.474
				c0-4.465-3.62-8.084-8.084-8.084h-10.779c-4.465,0-8.084,3.62-8.084,8.084c0,4.465,3.62,8.084,8.084,8.084h3.815
				c3.527,12.428,14.977,21.558,28.52,21.558h97.007c16.344,0,29.639-13.297,29.639-29.642c0-16.345-13.297-29.642-29.641-29.642
				h-57.708c-3.527-12.428-14.977-21.558-28.52-21.558h-43.115c-4.465,0-8.084,3.62-8.084,8.084
				C301.797,163.454,305.416,167.074,309.881,167.074z"/>
			<path d="M277.548,86.232c-4.465,0-8.084,3.62-8.084,8.084v145.516c0,34.176-27.803,61.979-61.977,61.979h-37.725
				c-4.465,0-8.084,3.62-8.084,8.084v75.453c0,4.465,3.62,8.084,8.084,8.084c4.465,0,8.084-3.62,8.084-8.084v-67.368h29.641
				c43.089,0,78.144-35.056,78.145-78.147V94.316C285.632,89.852,282.013,86.232,277.548,86.232z"/>
			<path d="M327.065,134.38c4.268-1.312,6.665-5.835,5.353-10.102c-2.436-7.925-3.67-16.193-3.67-24.573
				c0-46.062,37.473-83.537,83.534-83.537c46.061,0,83.534,37.475,83.534,83.537c0,19.794-7.046,38.99-19.84,54.051
				c-2.891,3.402-2.476,8.504,0.927,11.394c1.52,1.291,3.379,1.923,5.23,1.923c2.289,0,4.566-0.968,6.164-2.851
				c15.274-17.979,23.686-40.893,23.686-64.517C511.982,44.728,467.256,0,412.28,0s-99.702,44.727-99.702,99.705
				c0,9.992,1.475,19.857,4.384,29.323C318.273,133.296,322.796,135.692,327.065,134.38z"/>
			<path d="M277.547,479.664h172.458c4.465,0,8.084-3.62,8.084-8.084c0-4.465-3.62-8.084-8.084-8.084H277.548
				c-4.465,0-8.084,3.62-8.084,8.084C269.464,476.044,273.082,479.664,277.547,479.664z"/>
			<path d="M371.86,439.242c0-4.465-3.62-8.084-8.084-8.084H202.098c-4.465,0-8.084,3.62-8.084,8.084
				c0,4.465,3.62,8.084,8.084,8.084h161.678C368.24,447.327,371.86,443.707,371.86,439.242z"/>
			<path d="M509.566,437.669c3.381-6.048,3.233-13.183-0.397-19.085l-71.76-116.705c-8.326-13.541-21.6-21.625-35.507-21.626
				c0,0,0,0-0.001,0c-6.359,0-12.768,1.704-18.534,4.928l-185.833,103.89c-3.898,2.178-5.29,7.103-3.112,11.001
				c2.178,3.898,7.105,5.292,11.001,3.112l176.546-98.697c-14.978,52.222-51.204,90.168-94.089,97.726
				c-4.397,0.775-7.333,4.968-6.558,9.365c0.776,4.397,4.97,7.337,9.365,6.558c51.602-9.095,94.499-55.66,109.282-118.63
				c0.517-2.199,1.672-3.052,1.934-3.084c8.371,0,16.292,5.076,21.735,13.926l71.759,116.705c0.721,1.172,0.345,2.211,0.057,2.726
				c-0.289,0.515-0.977,1.38-2.352,1.38h-88.505c-4.465,0-8.084,3.62-8.084,8.084c0,4.465,3.62,8.084,8.084,8.084h88.505
				C500.03,447.327,506.185,443.716,509.566,437.669z"/>
			<path d="M165.763,105.573c-6.365-5.521-14.515-8.562-22.947-8.562c-19.316,0-35.031,15.716-35.031,35.032V256
				c0,4.465,3.62,8.084,8.084,8.084c4.465,0,8.084-3.62,8.084-8.084V132.042c0-10.401,8.461-18.863,18.862-18.863
				c4.541,0,8.928,1.636,12.353,4.607c3.374,2.925,8.48,2.563,11.404-0.81C169.498,113.604,169.136,108.498,165.763,105.573z"/>
			<path d="M29.641,59.285h77.605c4.465,0,8.084-3.62,8.084-8.084s-3.62-8.084-8.084-8.084H29.641
				c-7.429,0-13.474-6.044-13.474-13.474c0-7.43,6.045-13.474,13.474-13.474h107.785c7.43,0,13.474,6.044,13.474,13.474
				c0,7.43-6.045,13.474-13.474,13.474c-4.465,0-8.084,3.62-8.084,8.084s3.62,8.084,8.084,8.084
				c16.344,0,29.641-13.297,29.641-29.642C167.067,13.297,153.77,0,137.426,0H29.641C13.297,0,0,13.297,0,29.642
				C0,45.988,13.297,59.285,29.641,59.285z"/>
			<path d="M35.031,194.021c-4.465,0-8.084,3.62-8.084,8.084v32.337c0,31.204,25.384,56.589,56.587,56.589h11.318
				c4.465,0,8.084-3.62,8.084-8.084c0-4.465-3.62-8.084-8.084-8.084H83.534c-22.288,0-40.42-18.132-40.42-40.421v-32.337
				C43.114,197.641,39.495,194.021,35.031,194.021z"/>
			<path d="M78.144,317.979h29.642v45.811c0,4.465,3.62,8.084,8.084,8.084c4.465,0,8.084-3.62,8.084-8.084v-75.453
				c0-4.465-3.62-8.084-8.084-8.084c-4.465,0-8.084,3.62-8.084,8.084v13.474H78.145c-34.175,0-61.977-27.803-61.977-61.979v-43.116
				c0-10.401,8.461-18.863,18.862-18.863s18.862,8.463,18.862,18.863v32.337c0,19.316,15.715,35.032,35.031,35.032
				c4.465,0,8.084-3.62,8.084-8.084c0-4.465-3.62-8.084-8.084-8.084c-10.401,0-18.862-8.463-18.862-18.863v-32.337
				c0-19.316-15.715-35.032-35.031-35.032S0,177.4,0,196.716v43.116C0,282.923,35.055,317.979,78.144,317.979z"/>
			<path d="M503.896,495.832H189.262v-16.168h55.949c4.465,0,8.084-3.62,8.084-8.084c0-4.465-3.62-8.084-8.084-8.084h-55.949v-3.298
				c0-18.828-7.331-36.528-20.644-49.84c-19.281-19.282-48.299-25.721-73.926-16.401l-37.517,13.643
				c-27.75,10.092-46.396,36.712-46.396,66.242v21.991H8.084c-4.465,0-8.084,3.62-8.084,8.084C0,508.381,3.62,512,8.084,512h32.605
				c4.465,0,8.084-3.62,8.084-8.084c0-4.465-3.62-8.084-8.084-8.084H26.946v-21.991c0-22.755,14.368-43.27,35.754-51.047
				l37.517-13.643c19.752-7.18,42.111-2.22,56.97,12.639c10.258,10.259,15.908,23.899,15.908,38.408v35.634H69.9
				c-4.465,0-8.084,3.62-8.084,8.084c0,4.465,3.62,8.084,8.084,8.084h433.996c4.465,0,8.084-3.62,8.084-8.084
				C511.981,499.452,508.361,495.832,503.896,495.832z"/>
			<path d="M161.678,137.432v132.581c0,4.465,3.62,8.084,8.084,8.084s8.084-3.62,8.084-8.084V137.432
				c0-4.465-3.62-8.084-8.084-8.084S161.678,132.967,161.678,137.432z"/>
			<path d="M134.731,137.432v237.137c0,4.465,3.62,8.084,8.084,8.084s8.084-3.62,8.084-8.084V137.432
				c0-4.465-3.62-8.084-8.084-8.084S134.731,132.967,134.731,137.432z"/>
			<path d="M190.782,291.032H202.1c31.203,0,56.587-25.385,56.587-56.589V40.421c0-4.465-3.62-8.084-8.084-8.084
				c-4.465,0-8.084,3.62-8.084,8.084v194.021c0,22.289-18.132,40.421-40.42,40.421h-11.318c-4.465,0-8.084,3.62-8.084,8.084
				C182.697,287.412,186.315,291.032,190.782,291.032z"/>
			<path d="M196.708,264.085c19.316,0,35.031-15.716,35.031-35.032V35.032c0-10.401,8.461-18.863,18.862-18.863
				c10.401,0,18.862,8.463,18.862,18.863v30.181c0,4.465,3.62,8.084,8.084,8.084c4.465,0,8.084-3.62,8.084-8.084V35.032
				C285.631,15.716,269.917,0,250.601,0S215.57,15.716,215.57,35.032v194.021c0,10.401-8.461,18.863-18.862,18.863
				c-4.465,0-8.084,3.62-8.084,8.084C188.624,260.465,192.244,264.085,196.708,264.085z"/>
		</g>
	</g>
</g>
</svg>