<!DOCTYPE svg PUBLIC "-//W3C//DTD SVG 1.1//EN" "http://www.w3.org/Graphics/SVG/1.1/DTD/svg11.dtd">
<!-- Uploaded to: SVG Repo, www.svgrepo.com, Transformed by: SVG Repo Mixer Tools -->
<svg width="800px" height="800px" viewBox="0 0 400 400" fill="none" xmlns="http://www.w3.org/2000/svg">
<g id="SVGRepo_bgCarrier" stroke-width="0"/>
<g id="SVGRepo_tracerCarrier" stroke-linecap="round" stroke-linejoin="round"/>
<g id="SVGRepo_iconCarrier"> <path d="M26.2923 325.204C31.2719 237 25.1479 173 25.1484 89.5925C25.2835 86.7466 25.4079 83.9028 25.453 81.0532C25.4718 79.7141 25.5258 78.3722 25.5807 77.0331C25.606 76.3611 25.6134 75.6854 25.6363 75.0105C27.5109 74.8821 29.3986 74.842 31.2723 74.6906C33.4023 74.5199 35.5282 74.3205 37.6549 74.1498C41.9394 73.8027 46.2214 74.1333 50.4961 74.3743C54.8134 74.6203 59.1232 74.7688 63.447 74.8276C67.9968 74.8864 72.5506 74.9259 77.1003 74.8305C85.5072 74.6512 119.546 75.0772 121.643 74.9625C123.6 74.8556 125.548 74.7301 127.507 74.6878C131.508 74.6038 355.167 74.601 359.168 74.6935C361.534 74.7466 363.897 74.7638 366.263 74.7609C367.322 74.7609 368.384 74.7351 369.445 74.6992C369.813 74.6863 370.182 74.6619 370.551 74.6376C370.657 75.131 370.747 75.6288 370.849 76.1107C370.992 76.7864 371.109 77.4656 371.222 78.1448C371.646 81.9676 371.603 85.8249 371.389 89.6542C371.15 93.8794 371.054 98.0989 371.047 102.326C371.041 106.252 371.326 110.174 371.351 114.099C371.38 118.478 371.373 122.857 371.376 127.239C371.383 135.535 371.997 210.282 372.285 218.581C372.419 222.492 372.377 226.389 372.253 230.298C371.366 258.802 371.11 288.096 373.822 316.581C374.006 318.545 374.209 321.254 374.111 323.229C372.072 323.425 370.162 323.466 368.243 323.574C365.902 323.706 58.0004 325.211 54.4846 325.443C52.7189 325.561 50.954 325.67 49.1858 325.723" stroke="#8b5555" stroke-opacity="0.9" stroke-width="12" stroke-linecap="round" stroke-linejoin="round"/> <path d="M136.192 99.2402C133.308 96.4329 130.411 95.0293 127.5 95.0293C123.135 95.0293 117.227 96.8191 117.227 104.331C117.227 111.844 121.463 114.414 125.314 114.414C129.165 114.414 133.273 112.583 134.774 111.247" stroke="#8b5555" stroke-opacity="0.9" stroke-width="12" stroke-linecap="round" stroke-linejoin="round"/> <path d="M134.66 92C134.993 92.7614 135.268 93.6496 135.486 94.6647C135.703 95.6797 135.938 97.1674 136.188 99.1278C134.506 99.5955 133.323 99.9775 132.638 100.274C131.953 100.57 131.161 101.043 130.262 101.692" stroke="#8b5555" stroke-opacity="0.9" stroke-width="12" stroke-linecap="round" stroke-linejoin="round"/> <path d="M82.6399 111.047C82.6595 111.195 84.5149 109.845 86.586 108.1C87.6082 107.239 89.0954 106.116 90.087 105.237C91.3756 104.094 92.4091 102.986 93.1875 101.914C93.1875 101.527 89.4029 98.1758 89.1206 97.9251C88.3198 97.2139 84.5734 94.2535 84.109 93.8612C83.6964 93.5127 83.2797 93.1749 82.8645 92.8332C82.8365 92.8101 82.8057 92.7943 82.7678 92.7695" stroke="#8b5555" stroke-opacity="0.9" stroke-width="12" stroke-linecap="round" stroke-linejoin="round"/> <path d="M59.5672 111.047C59.5475 111.195 57.6921 109.845 55.6211 108.1C54.5988 107.239 53.1116 106.116 52.12 105.237C50.8314 104.094 49.7979 102.986 49.0195 101.914C49.0195 101.527 52.8041 98.1758 53.0864 97.9251C53.8872 97.2139 57.6337 94.2535 58.0981 93.8612C58.5106 93.5127 58.9273 93.1749 59.3425 92.8332C59.3705 92.8101 59.4013 92.7943 59.4392 92.7695" stroke="#8b5555" stroke-opacity="0.9" stroke-width="12" stroke-linecap="round" stroke-linejoin="round"/> <path d="M159.836 109.738C159.903 109.642 159.97 109.546 160.001 109.45C160.051 109.295 160.077 109.14 160.127 108.984C160.174 108.837 160.203 108.689 160.139 108.542C160.077 108.394 159.989 108.247 159.92 108.1C159.837 97 159.998 91.7179 161.3 91.7217C169.333 91.6337 177.367 91.7548 185.402 91.7318C189.823 91.7189 207.725 91.7495 208.828 91.7413C209.857 91.7336 210.881 91.7245 211.912 91.7215C214.016 91.7155 331.644 91.7153 333.748 91.7219C334.993 91.7257 336.235 91.727 337.48 91.7268C338.037 91.7268 338.595 91.7249 339.153 91.7223C339.347 91.7214 339.541 91.7197 339.735 91.7179C339.791 91.7534 339.838 91.7892 339.892 91.8238C339.967 91.8724 340.028 91.9213 340.088 91.9701C340.311 92.2451 340.288 92.5225 340.176 92.7979C340.05 93.1017 339.999 93.4052 339.996 93.7092C339.993 93.9915 340.142 94.2736 340.156 94.5559C340.356 98.7374 340.282 103.225 340.8 107.385C340.848 107.775 340.813 108.165 341.101 108.554C341.239 108.742 341.325 108.93 341.455 109.118C341.552 109.259 341.659 109.454 341.607 109.596C340.535 109.61 339.53 109.613 338.521 109.621C337.29 109.63 175.357 109.739 173.507 109.755C172.579 109.764 171.651 109.772 170.721 109.775" stroke="#8b5555" stroke-opacity="0.9" stroke-width="12" stroke-linecap="round" stroke-linejoin="round"/> </g>
</svg>