<?xml version="1.0" encoding="utf-8"?>
<!-- Uploaded to: SVG Repo, www.svgrepo.com, Generator: SVG Repo Mixer Tools -->
<svg width="800px" height="800px" viewBox="0 0 1024 1024" fill="#000000" class="icon"  version="1.1" xmlns="http://www.w3.org/2000/svg"><path d="M871.836 1023.766H152.164a7.992 7.992 0 0 1-7.996-7.996v-79.962c0-68.64 35.546-94.942 101.158-119.446l16.976-6.294a5992.148 5992.148 0 0 0 31.486-11.682c4.108-1.594 8.746 0.546 10.292 4.67a7.974 7.974 0 0 1-4.67 10.292c-11.448 4.308-22.146 8.246-31.564 11.728l-16.93 6.278c-61.486 22.958-90.754 44.45-90.754 104.454v71.966H863.84v-71.966c0-60.004-29.27-81.494-90.756-104.454l-18.118-6.714c-8.98-3.31-19.068-7.044-29.846-11.09a7.974 7.974 0 0 1-4.67-10.292c1.546-4.124 6.186-6.264 10.292-4.67a4802.2 4802.2 0 0 0 29.768 11.042l18.18 6.748c65.594 24.488 101.14 50.79 101.14 119.43v79.962a7.988 7.988 0 0 1-7.994 7.996zM512 767.882c-0.906 0-1.828-0.156-2.732-0.484l-87.96-31.984a7.98 7.98 0 0 1-4.778-10.246 7.988 7.988 0 0 1 10.246-4.78l87.96 31.986a7.98 7.98 0 0 1 4.778 10.244 7.99 7.99 0 0 1-7.514 5.264z" fill="" /><path d="M512 767.882a7.988 7.988 0 0 1-7.512-5.264 7.976 7.976 0 0 1 4.78-10.244l87.958-31.986a7.98 7.98 0 0 1 10.246 4.78 7.98 7.98 0 0 1-4.78 10.246l-87.958 31.984a8.014 8.014 0 0 1-2.734 0.484zM551.982 847.846h-79.964a8.012 8.012 0 0 1-7.154-4.42l-15.992-31.984a8.004 8.004 0 0 1 3.576-10.73 7.988 7.988 0 0 1 10.73 3.578l13.774 27.564h70.094l13.774-27.564a8.02 8.02 0 0 1 10.73-3.578 8.006 8.006 0 0 1 3.576 10.73l-15.992 31.984a8.012 8.012 0 0 1-7.152 4.42z" fill="" /><path d="M472.034 927.808c-0.532 0-1.062-0.046-1.578-0.156a7.976 7.976 0 0 1-6.28-9.4l15.994-79.962c0.874-4.36 5.248-7.138 9.402-6.28a7.98 7.98 0 0 1 6.28 9.402l-15.994 79.962a7.988 7.988 0 0 1-7.824 6.434zM551.966 927.808a7.994 7.994 0 0 1-7.826-6.434l-15.992-79.962a7.976 7.976 0 0 1 6.28-9.402c4.154-0.86 8.528 1.92 9.4 6.28l15.994 79.962a7.976 7.976 0 0 1-6.28 9.4 7.55 7.55 0 0 1-1.576 0.156zM425.226 991.782a7.94 7.94 0 0 1-5.59-2.282l-49.166-47.978a8 8 0 0 1-1.998-8.246l14.758-44.26-61.798-92.708a7.992 7.992 0 0 1 1-10.09l63.97-63.97a7.994 7.994 0 0 1 11.308 0 7.992 7.992 0 0 1 0 11.306l-59.332 59.332 60.332 90.506a7.97 7.97 0 0 1 0.936 6.964l-14.414 43.23 45.588 44.48a7.994 7.994 0 0 1 0.124 11.306 7.992 7.992 0 0 1-5.718 2.41z" fill="" /><path d="M472.018 991.782a8.014 8.014 0 0 1-7.638-5.608l-79.962-255.882a8.016 8.016 0 0 1 5.248-10.028 7.974 7.974 0 0 1 10.026 5.248l79.964 255.882a8.014 8.014 0 0 1-5.248 10.028c-0.796 0.25-1.61 0.36-2.39 0.36zM598.774 991.782a7.994 7.994 0 0 1-5.592-13.712l45.588-44.48-14.414-43.23a7.964 7.964 0 0 1 0.938-6.964l60.33-90.506-59.332-59.332c-3.124-3.124-3.124-8.184 0-11.306s8.184-3.124 11.306 0l63.972 63.97a7.994 7.994 0 0 1 0.998 10.09l-61.798 92.708 14.758 44.26a8 8 0 0 1-1.998 8.246l-49.166 47.978a7.954 7.954 0 0 1-5.59 2.278z" fill="" /><path d="M551.982 991.782c-0.782 0-1.594-0.11-2.39-0.36a8.016 8.016 0 0 1-5.248-10.028l79.964-255.882c1.328-4.202 5.778-6.59 10.026-5.248a8.016 8.016 0 0 1 5.248 10.028L559.62 986.174a8.016 8.016 0 0 1-7.638 5.608zM440.034 799.868a7.994 7.994 0 0 1-3.248-15.304l71.966-31.984c4.03-1.766 8.762 0 10.556 4.06a8.004 8.004 0 0 1-4.06 10.556l-71.966 31.986a8.034 8.034 0 0 1-3.248 0.686z" fill="" /><path d="M583.966 799.868a8 8 0 0 1-3.248-0.686l-71.966-31.986a8 8 0 0 1-4.06-10.556c1.81-4.06 6.512-5.826 10.556-4.06l71.966 31.984a8.004 8.004 0 0 1 4.062 10.558 7.992 7.992 0 0 1-7.31 4.746zM512 991.782a7.992 7.992 0 0 1-7.996-7.996V903.82c0-4.42 3.576-7.996 7.996-7.996s7.996 3.576 7.996 7.996v79.964a7.992 7.992 0 0 1-7.996 7.998z" fill="" /><path d="M512 368.066c-165.58 0-367.832-36.906-367.832-79.964 0-11.776 8.964-29.206 86.414-44.48 4.264-0.906 8.528 1.952 9.386 6.294a7.988 7.988 0 0 1-6.294 9.386c-60.3 11.902-73.512 24.818-73.512 28.8 0 18.554 152.274 63.97 351.838 63.97s351.84-45.416 351.84-63.97c0-3.982-13.212-16.898-73.514-28.8a7.986 7.986 0 0 1-6.294-9.386c0.844-4.342 5.108-7.216 9.386-6.294 77.45 15.274 86.414 32.704 86.414 44.48 0 43.06-202.252 79.964-367.832 79.964z" fill="" /><path d="M512 304.096c-135.484 0-248.95-31.97-250.088-32.298a8 8 0 0 1-5.794-7.684V143.168C256.118 44.962 388.76 0.234 512 0.234s255.882 44.73 255.882 142.934v120.944a8 8 0 0 1-5.792 7.684c-1.14 0.328-114.606 32.3-250.09 32.3z m-239.89-46.12c24.568 6.372 124.006 30.126 239.89 30.126 115.994 0 215.34-23.754 239.89-30.126V143.168c0-83.336-120.68-126.942-239.89-126.942S272.11 59.832 272.11 143.168v114.808z" fill="" /><path d="M512 272.11c-135.484 0-248.95-31.968-250.088-32.296a7.98 7.98 0 0 1-5.482-9.886c1.204-4.232 5.576-6.792 9.886-5.482 1.108 0.312 112.526 31.672 245.684 31.672 133.284 0 244.576-31.362 245.684-31.672 4.282-1.312 8.684 1.234 9.886 5.482a7.98 7.98 0 0 1-5.48 9.886c-1.14 0.326-114.606 32.296-250.09 32.296z" fill="" /><path d="M472.018 703.912a7.992 7.992 0 0 1-7.998-7.996v-47.978a7.992 7.992 0 0 1 7.998-7.996 7.992 7.992 0 0 1 7.996 7.996v47.978a7.99 7.99 0 0 1-7.996 7.996z" fill="" /><path d="M551.982 703.912a7.992 7.992 0 0 1-7.998-7.996v-47.978c0-4.42 3.578-7.996 7.998-7.996s7.996 3.576 7.996 7.996v47.978a7.99 7.99 0 0 1-7.996 7.996z" fill="" /><path d="M567.974 703.912h-111.95c-4.42 0-7.996-3.576-7.996-7.996s3.576-7.996 7.996-7.996h111.95c4.42 0 7.996 3.576 7.996 7.996s-3.576 7.996-7.996 7.996z" fill="" /><path d="M567.974 719.904a7.99 7.99 0 0 1-7.996-7.996v-15.992c0-4.42 3.576-7.996 7.996-7.996s7.996 3.576 7.996 7.996v15.992a7.99 7.99 0 0 1-7.996 7.996z" fill="" /><path d="M456.026 719.904a7.99 7.99 0 0 1-7.996-7.996v-15.992c0-4.42 3.576-7.996 7.996-7.996s7.996 3.576 7.996 7.996v15.992a7.99 7.99 0 0 1-7.996 7.996z" fill="" /><path d="M512 751.89a7.99 7.99 0 0 1-7.996-7.996v-31.986c0-4.42 3.576-7.996 7.996-7.996s7.996 3.576 7.996 7.996v31.986a7.99 7.99 0 0 1-7.996 7.996z" fill="" /><path d="M512 639.942c-141.654 0-258.054-106.248-270.75-247.152a273.146 273.146 0 0 1-1-32.952c0.124-4.42 4.28-7.576 8.23-7.762a8.004 8.004 0 0 1 7.762 8.23 256.744 256.744 0 0 0-0.124 7.762c0 7.714 0.36 15.54 1.062 23.286 11.948 132.596 121.49 232.598 254.82 232.598 133.346 0 242.904-100.002 254.852-232.614 0.688-7.512 1.032-15.352 1.032-23.27 0-2.61-0.032-5.216-0.094-7.81a7.994 7.994 0 0 1 7.808-8.184c4.326 0.282 8.074 3.39 8.184 7.81 0.062 2.716 0.094 5.45 0.094 8.184 0 8.402-0.376 16.726-1.094 24.708-12.696 140.902-129.112 247.166-270.782 247.166z" fill="" /><path d="M512 607.958c-130.034 0-235.346-101.736-239.734-231.628a8.018 8.018 0 0 1 7.732-8.262c4.014-0.172 8.09 3.31 8.262 7.73 4.092 121.21 102.376 216.166 223.742 216.166 121.368 0 219.664-94.956 223.774-216.166 0.156-4.42 3.858-7.606 8.262-7.73a8.016 8.016 0 0 1 7.73 8.262C747.362 506.222 642.036 607.958 512 607.958z" fill="" /><path d="M512 559.978c-96.096 0-177.902-71.75-190.288-166.892a8.02 8.02 0 0 1 6.902-8.964c4.216-0.578 8.386 2.514 8.964 6.904 11.338 87.194 86.336 152.96 174.42 152.96 4.42 0 7.996 3.578 7.996 7.998s-3.574 7.994-7.994 7.994z" fill="" /></svg>